<?xml version="1.0" encoding="UTF-8"?>
<svg xmlns="http://www.w3.org/2000/svg" viewBox="0 0 760 880" style="background:#f7f7f5" role="img" aria-label="Shop drawing of the On-Q 42 enclosure back panel, interior 14 by 41.75 inches, with eight numbered parts placed to scale, inch rulers on the top and left edges, the top and bottom knockouts, the drilled exit hole on the left wall, and a side-view depth section showing every part clears the 4.31 inch usable depth.">
<style>
  svg { font-family: -apple-system, "Segoe UI", Helvetica, Arial, sans-serif; }
  .t-title { font-size: 15px; font-weight: 600; fill: #1f2430; letter-spacing: 0.01em; }
  .t-sub { font-size: 10.5px; fill: #6b7280; }
  .t-key { font-size: 11px; fill: #1f2430; }
  .t-key b { font-weight: 600; }
  .t-dim { font-family: ui-monospace, SFMono-Regular, Menlo, Consolas, monospace; font-size: 9.5px; fill: #6b7280; }
  .t-in { font-size: 9px; fill: #1f2430; }
  .t-in2 { font-size: 8px; fill: #6b7280; }
  .t-h { font-family: ui-monospace, SFMono-Regular, Menlo, Consolas, monospace; font-size: 9.5px; fill: #6b7280; letter-spacing: 0.08em; }
  .wall { fill: #ffffff; stroke: #1f2430; stroke-width: 2; }
  .flange { fill: #e9e9e4; stroke: #1f2430; stroke-width: 1; }
  .ko { fill: #f7f7f5; stroke: #1f2430; stroke-width: 1; }
  .ko-used { fill: #f7f7f5; stroke: #b5652b; stroke-width: 1.5; }
  .part { fill: #e6e8ec; stroke: #3b4252; stroke-width: 1; }
  .part-d { fill: #d3d7de; stroke: #3b4252; stroke-width: 1; }
  .ghost { fill: none; stroke: #9aa2b3; stroke-width: 1; stroke-dasharray: 4 3; }
  .tick { stroke: #9aa2b3; stroke-width: 0.8; }
  .tick5 { stroke: #1f2430; stroke-width: 1; }
  .cu { stroke: #b5652b; fill: none; }
  .fb { stroke: #1c86b0; fill: none; }
  .co { stroke: #1f2430; fill: none; }
  .callout circle { fill: #1f2430; stroke: #f7f7f5; stroke-width: 1.5; }
  .callout text { fill: #ffffff; font-family: ui-monospace, Menlo, monospace; font-size: 9.5px; font-weight: 600; text-anchor: middle; }
  .lead { stroke: #6b7280; stroke-width: 0.7; }
  .dl { stroke: #6b7280; stroke-width: 0.7; }
  .depth-bar { fill: #d3d7de; stroke: #3b4252; stroke-width: 0.8; }
  .depth-plug { fill: #f7f7f5; stroke: #3b4252; stroke-width: 0.8; stroke-dasharray: 2 2; }
</style>
<defs>
  <marker id="ar" viewBox="0 0 8 8" refX="7" refY="4" markerWidth="7" markerHeight="7" markerUnits="userSpaceOnUse" orient="auto-start-reverse"><path d="M0,0 L8,4 L0,8 z" fill="#6b7280"/></marker>
</defs>

<!-- title block -->
<text x="40" y="34" class="t-title">On-Q 42" back panel</text>
<text x="40" y="50" class="t-sub">ENP4250-NA · inside view, door open · 12 px = 1 in · interior 14 × 41.75 × 4.31 in · body 14.3 × 42.75 × 4.09 in outside, door +1.2</text>
<line x1="40" y1="60" x2="720" y2="60" stroke="#1f2430" stroke-width="1"/>

<!-- ================= PLAN VIEW ================= -->
<!-- flanges (top/bottom walls where knockouts live) -->
<g transform="translate(90 124)">
  <!-- rulers -->
  <g class="tick">
    <line x1="0" y1="-14" x2="0" y2="-8" class="tick5"/><line x1="12" y1="-12" x2="12" y2="-8"/><line x1="24" y1="-12" x2="24" y2="-8"/><line x1="36" y1="-12" x2="36" y2="-8"/><line x1="48" y1="-12" x2="48" y2="-8"/>
    <line x1="60" y1="-14" x2="60" y2="-8" class="tick5"/><line x1="72" y1="-12" x2="72" y2="-8"/><line x1="84" y1="-12" x2="84" y2="-8"/><line x1="96" y1="-12" x2="96" y2="-8"/><line x1="108" y1="-12" x2="108" y2="-8"/>
    <line x1="120" y1="-14" x2="120" y2="-8" class="tick5"/><line x1="132" y1="-12" x2="132" y2="-8"/><line x1="144" y1="-12" x2="144" y2="-8"/><line x1="156" y1="-12" x2="156" y2="-8"/><line x1="168" y1="-14" x2="168" y2="-8" class="tick5"/>
  </g>
  <text x="0" y="-18" class="t-dim" text-anchor="middle">0</text><text x="60" y="-18" class="t-dim" text-anchor="middle">5</text><text x="120" y="-18" class="t-dim" text-anchor="middle">10</text><text x="168" y="-18" class="t-dim" text-anchor="middle">14</text>
  <g class="tick">
    <line x1="-8" y1="0" x2="-14" y2="0" class="tick5"/>
    <line x1="-8" y1="60" x2="-14" y2="60" class="tick5"/><line x1="-8" y1="120" x2="-14" y2="120" class="tick5"/><line x1="-8" y1="180" x2="-14" y2="180" class="tick5"/><line x1="-8" y1="240" x2="-14" y2="240" class="tick5"/><line x1="-8" y1="300" x2="-14" y2="300" class="tick5"/><line x1="-8" y1="360" x2="-14" y2="360" class="tick5"/><line x1="-8" y1="420" x2="-14" y2="420" class="tick5"/><line x1="-8" y1="480" x2="-14" y2="480" class="tick5"/><line x1="-8" y1="501" x2="-14" y2="501" class="tick5"/>
    <line x1="-8" y1="12" x2="-11" y2="12"/><line x1="-8" y1="24" x2="-11" y2="24"/><line x1="-8" y1="36" x2="-11" y2="36"/><line x1="-8" y1="48" x2="-11" y2="48"/>
    <line x1="-8" y1="72" x2="-11" y2="72"/><line x1="-8" y1="84" x2="-11" y2="84"/><line x1="-8" y1="96" x2="-11" y2="96"/><line x1="-8" y1="108" x2="-11" y2="108"/>
    <line x1="-8" y1="132" x2="-11" y2="132"/><line x1="-8" y1="144" x2="-11" y2="144"/><line x1="-8" y1="156" x2="-11" y2="156"/><line x1="-8" y1="168" x2="-11" y2="168"/>
    <line x1="-8" y1="192" x2="-11" y2="192"/><line x1="-8" y1="204" x2="-11" y2="204"/><line x1="-8" y1="216" x2="-11" y2="216"/><line x1="-8" y1="228" x2="-11" y2="228"/>
    <line x1="-8" y1="252" x2="-11" y2="252"/><line x1="-8" y1="264" x2="-11" y2="264"/><line x1="-8" y1="276" x2="-11" y2="276"/><line x1="-8" y1="288" x2="-11" y2="288"/>
    <line x1="-8" y1="312" x2="-11" y2="312"/><line x1="-8" y1="324" x2="-11" y2="324"/><line x1="-8" y1="336" x2="-11" y2="336"/><line x1="-8" y1="348" x2="-11" y2="348"/>
    <line x1="-8" y1="372" x2="-11" y2="372"/><line x1="-8" y1="384" x2="-11" y2="384"/><line x1="-8" y1="396" x2="-11" y2="396"/><line x1="-8" y1="408" x2="-11" y2="408"/>
    <line x1="-8" y1="432" x2="-11" y2="432"/><line x1="-8" y1="444" x2="-11" y2="444"/><line x1="-8" y1="456" x2="-11" y2="456"/><line x1="-8" y1="468" x2="-11" y2="468"/><line x1="-8" y1="492" x2="-11" y2="492"/>
  </g>
  <g class="t-dim" text-anchor="end">
    <text x="-18" y="3">0</text><text x="-18" y="63">5</text><text x="-18" y="123">10</text><text x="-18" y="183">15</text><text x="-18" y="243">20</text><text x="-18" y="303">25</text><text x="-18" y="363">30</text><text x="-18" y="423">35</text><text x="-18" y="483">40</text>
  </g>

  <!-- top flange with 5 x 2 in knockouts -->
  <rect x="-6" y="-6" width="180" height="6" class="flange"/>
  <rect x="10" y="-5" width="24" height="4" class="ko-used"/><rect x="42" y="-5" width="24" height="4" class="ko-used"/><rect x="74" y="-5" width="24" height="4" class="ko-used"/><rect x="106" y="-5" width="24" height="4" class="ko-used"/><rect x="138" y="-5" width="24" height="4" class="ko-used"/>
  <!-- bottom flange with 2 x 1.25 + 2 x 0.75 -->
  <rect x="-6" y="501" width="180" height="6" class="flange"/>
  <rect x="6" y="502" width="58" height="4" class="ko-used"/><rect x="104" y="502" width="58" height="4" class="ko-used"/>
  <!-- side walls -->
  <rect x="-6" y="0" width="6" height="501" class="flange"/>
  <rect x="168" y="0" width="6" height="501" class="flange"/>
  <!-- interior -->
  <rect x="0" y="0" width="168" height="501" fill="#ffffff" stroke="#1f2430" stroke-width="1.2"/>

  <!-- cables entering -->
  <g stroke-width="2.2" stroke-linecap="round">
    <line x1="16" y1="-30" x2="16" y2="-6" class="cu"/><line x1="22" y1="-30" x2="22" y2="-6" class="cu"/><line x1="28" y1="-30" x2="28" y2="-6" class="cu"/>
    <line x1="48" y1="-30" x2="48" y2="-6" class="cu"/><line x1="54" y1="-30" x2="54" y2="-6" class="cu"/><line x1="60" y1="-30" x2="60" y2="-6" class="cu"/>
    <line x1="118" y1="-30" x2="118" y2="-6" class="fb" stroke-width="1.8"/>
    <line x1="150" y1="-30" x2="150" y2="-6" class="co" stroke-width="1.8"/>
    <line x1="80" y1="-30" x2="80" y2="-6" class="co" stroke-width="1.2"/><line x1="86" y1="-30" x2="86" y2="-6" class="co" stroke-width="1.2"/><line x1="92" y1="-30" x2="92" y2="-6" class="co" stroke-width="1.2"/>
  </g>
  <text x="22" y="-36" class="t-in2" text-anchor="middle">6 drops</text>
  <text x="54" y="-46" class="t-in2" text-anchor="middle">3 AP · 4 spare</text>
  <text x="118" y="-36" class="t-in2" text-anchor="middle">OM4</text>
  <text x="86" y="-58" class="t-in2" text-anchor="middle">5 room coax</text>
  <text x="150" y="-36" class="t-in2" text-anchor="middle">coax</text>

  <!-- 1 SPD -->
  <rect x="149" y="10" width="18" height="32" class="part-d" rx="1"/>
  <path d="M158,42 L158,275 L118,275 L118,257" class="co" stroke-width="1.8" fill="none"/>
  <path d="M167,26 L170,26 L170,470 L162,470" stroke="#2f855a" stroke-width="1" stroke-dasharray="3 2" fill="none"/>

  <!-- 2 AC106A6 x2 -->
  <rect x="6" y="60" width="34.8" height="76.9" class="part-d" rx="1"/>
  <rect x="40.8" y="60" width="34.8" height="76.9" class="part-d" rx="1"/>
  <rect x="75.6" y="60" width="34.8" height="76.9" class="part-d" rx="1"/>
  <g fill="#ffffff" stroke="#3b4252" stroke-width="0.6">
    <rect x="80" y="66" width="8" height="7"/><rect x="91" y="66" width="8" height="7"/><rect x="102" y="66" width="7" height="7"/>
    <rect x="80" y="77" width="8" height="7"/><rect x="91" y="77" width="8" height="7"/><rect x="102" y="77" width="7" height="7"/>
  </g>
  <text x="93" y="118" class="t-in2" text-anchor="middle">C</text>
  <g fill="#ffffff" stroke="#3b4252" stroke-width="0.6">
    <rect x="10" y="66" width="8" height="7"/><rect x="21" y="66" width="8" height="7"/><rect x="32" y="66" width="7" height="7"/>
    <rect x="10" y="77" width="8" height="7"/><rect x="21" y="77" width="8" height="7"/><rect x="32" y="77" width="7" height="7"/>
    <rect x="45" y="66" width="8" height="7"/><rect x="56" y="66" width="8" height="7"/><rect x="67" y="66" width="7" height="7"/>
    <rect x="45" y="77" width="8" height="7"/><rect x="56" y="77" width="8" height="7"/><rect x="67" y="77" width="7" height="7"/>
  </g>
  <text x="23" y="118" class="t-in2" text-anchor="middle">A</text>
  <text x="58" y="118" class="t-in2" text-anchor="middle">B</text>

  <!-- 3 modem rotated -->
    <path d="M86,-6 L86,20 L118,20 L118,145 L27,145 L27,156" class="co" stroke-width="1.2" fill="none"/>
    <rect x="55" y="156" width="80.4" height="101.5" class="part" rx="2"/>
  <text x="95" y="204" class="t-in" text-anchor="middle">EU2251</text>
  <text x="95" y="216" class="t-in2" text-anchor="middle">on the grid</text>
  <rect x="65" y="249" width="60" height="6" fill="#ffffff" stroke="#3b4252" stroke-width="0.7"/>
  <rect x="6" y="156" width="43" height="77" class="part-d" rx="1"/>
  <text x="27.5" y="190" class="t-in2" text-anchor="middle" font-size="7">VM1002</text>
  <text x="27.5" y="200" class="t-in2" text-anchor="middle" font-size="7">1×8 · parked</text>
  <path d="M72,257 L72,287 L12,287" class="cu" stroke-width="1.6" fill="none"/>
  <path d="M100,257 L100,290 L30,290 L30,296" class="co" stroke-width="1" stroke-dasharray="2 2" fill="none"/>

  <!-- 4 exit hole -->
  <circle cx="-3" cy="291" r="15" fill="#ffffff" stroke="#b5652b" stroke-width="1.5"/>
  <path d="M-18,287 L-46,287" class="cu" stroke-width="3" marker-end="url(#ar)"/>
  <path d="M-18,295 L-46,295" class="fb" stroke-width="1.6" marker-end="url(#ar)"/>

  <!-- 5a OM4: continuous from the top knockout, down the right edge, into the coil, across to the exit hole -->
  <path d="M118,-6 L118,4 L160,4 L160,314 L80,314 L42,322" class="fb" stroke-width="1.6" fill="none"/>
  <g class="fb" stroke-width="1.6"><ellipse cx="42" cy="352" rx="30" ry="30"/><ellipse cx="42" cy="357" rx="30" ry="30"/></g>
  <path d="M12,352 L8,348 L8,295 L-18,295" class="fb" stroke-width="1.6" fill="none"/>
  <!-- 5b spare Cat6A: from the top knockout, coiled, dead end -->
  <g class="cu" stroke-width="2"><ellipse cx="124" cy="352" rx="30" ry="30"/><ellipse cx="124" cy="357" rx="30" ry="30"/></g>
  <path d="M124,322 L124,300 L142,300 L142,150 L112,140" class="cu" stroke-width="2" fill="none"/>

  <!-- 6 brick -->
  <rect x="86" y="394" width="77" height="47" class="part-d" rx="2"/>
  <g fill="#ffffff" stroke="#3b4252" stroke-width="0.6"><rect x="94" y="400" width="10" height="10"/><rect x="110" y="400" width="10" height="10"/><rect x="126" y="400" width="10" height="10"/><rect x="94" y="418" width="10" height="10"/><rect x="110" y="418" width="10" height="10"/><rect x="126" y="418" width="10" height="10"/></g>
  <text x="150" y="420" class="t-in2" text-anchor="middle" font-size="6.5" transform="rotate(-90 150 420)">AC1031</text>
  <rect x="12" y="296" width="36" height="20" class="part" rx="2"/>
  <path d="M12,312 L4,312 L4,430 L86,430" class="co" stroke-width="1.2" fill="none"/>

  <!-- 7 kit outlet -->
  <rect x="6" y="450" width="58" height="48" class="part-d" rx="1"/>
  <circle cx="35" cy="465" r="4" fill="none" stroke="#1f2430"/><circle cx="35" cy="483" r="4" fill="none" stroke="#1f2430"/>
  <line x1="35" y1="498" x2="35" y2="501" class="co" stroke-width="1.8"/>

  <!-- 8 house duplex (assumed) -->
  <rect x="104" y="450" width="58" height="48" class="part-d" rx="1"/>
  <circle cx="133" cy="465" r="4" fill="none" stroke="#1f2430"/><circle cx="133" cy="483" r="4" fill="none" stroke="#1f2430"/>
  <line x1="133" y1="498" x2="133" y2="501" class="co" stroke-width="1.8"/>

  <!-- callouts -->
  <g class="callout">
    <circle cx="188" cy="26" r="8"/><text x="188" y="29.5">1</text>
    <circle cx="-30" cy="98" r="8"/><text x="-30" y="101.5">2</text>
    <circle cx="188" cy="206" r="8"/><text x="188" y="209.5">3</text>
    <circle cx="-30" cy="322" r="8"/><text x="-30" y="325.5">4</text>
    <circle cx="-30" cy="189" r="8"/><text x="-30" y="192.5">9</text>
    <circle cx="-30" cy="352" r="8"/><text x="-30" y="355.5">5a</text>
    <circle cx="188" cy="352" r="8"/><text x="188" y="355.5">5b</text>
    <circle cx="188" cy="417" r="8"/><text x="188" y="420.5">6</text>
    <circle cx="-30" cy="458" r="8"/><text x="-30" y="461.5">7</text>
    <circle cx="188" cy="474" r="8"/><text x="188" y="477.5">8</text>
  </g>
  <g class="lead">
    <line x1="167" y1="26" x2="180" y2="26"/>
    <line x1="-22" y1="98" x2="6" y2="98"/>
    <line x1="135" y1="206" x2="180" y2="206"/>
    <line x1="-22" y1="322" x2="-3" y2="306"/>
    <line x1="-22" y1="189" x2="6" y2="189"/>
    <line x1="-22" y1="352" x2="8" y2="352"/>
    <line x1="156" y1="352" x2="180" y2="352"/>
    <line x1="163" y1="417" x2="180" y2="417"/>
    <line x1="-22" y1="458" x2="6" y2="458"/>
    <line x1="162" y1="474" x2="180" y2="474"/>
  </g>
</g>

<!-- ================= KEY ================= -->
<g transform="translate(320 124)">
  <text x="0" y="0" class="t-h">PART · POSITION (in, from top-left inside) · SIZE (in)</text>
  <text x="0" y="20" class="t-key"><tspan font-weight="600">1</tspan>  TII 212 coax surge arrestor · x 12.4  y 0.8 · 1.5 × 2.7, upright</text>
  <text x="14" y="34" class="t-sub">coax in from the top knockout · F jumper out to the modem's coax port (3)</text>
  <text x="14" y="46" class="t-sub">ground lug bonded to the house-circuit box (8), dashed green</text>
  <text x="0" y="64" class="t-key"><tspan font-weight="600">2</tspan>  Legrand AC106A6 × 3 · x 0.5  y 5.0 · 8.7 × 6.41</text>
  <text x="14" y="78" class="t-sub">A: 6 drops · B: 3 AP runs + 3 spares · C: 4th spare, 5 free</text>
  <text x="0" y="96" class="t-key"><tspan font-weight="600">3</tspan>  Ubee EU2251 modem, rotated, hung by its keyholes · x 4.6  y 13 · 6.7 × 8.46 × 2.8</text>
  <text x="14" y="110" class="t-sub">coax from 1 · WAN patch to the exit (4) · DC from the brick (6); ports face down</text>
  <text x="0" y="128" class="t-key"><tspan font-weight="600">4</tspan>  Drilled exit, left wall · y 24 · 2.5 in + F2242 ring</text>
  <text x="14" y="142" class="t-sub">8 patch + WAN + fiber → brush plate → rack</text>
  <text x="0" y="160" class="t-key"><tspan font-weight="600">5a</tspan>  OM4 fiber, pass-through · coil y 27–32 · 5 in dia</text>
  <text x="14" y="174" class="t-sub">attic → coil → exit hole → Switch X SFP+ 1; other end in the garage</text>
  <text x="0" y="192" class="t-key"><tspan font-weight="600">5b</tspan>  Slack of the 13 terminated runs · coil y 27–32</text>
  <text x="14" y="206" class="t-sub">every run is punched down now (18 positions); this is the</text>
  <text x="14" y="218" class="t-sub">excess length before the modules, clipped with AC103520</text>
  <text x="0" y="236" class="t-key"><tspan font-weight="600">6</tspan>  AC1031 strip · x 7.2  y 32.8 · 6.4 × 3.9 × 2.5 · modem brick x 1  y 24.7</text>
  <text x="0" y="256" class="t-key"><tspan font-weight="600">7</tspan>  Kit receptacle + USB in an F7526 box · x 0.5  y 37.5 · box 4.8 × 4.0 × 3.25</text>
  <text x="14" y="270" class="t-sub">left cutout · UPS-backed, switched · feeds the AC1031 strip</text>
  <text x="0" y="288" class="t-key"><tspan font-weight="600">8</tspan>  House-circuit GaN 65 W USB-C duplex in an F7526 box · x 8.7  y 37.5 · same box</text>
  <text x="14" y="302" class="t-sub">always on, not UPS-backed</text>
  <text x="0" y="320" class="t-key"><tspan font-weight="600">9</tspan>  On-Q VM1002 1×8 passive splitter · x 0.5  y 13 · 3.6 × 6.42 × 1.85</text>
  <text x="14" y="334" class="t-sub">the five room coax runs park here, off the modem path (internet only, no TV)</text>
  <text x="0" y="362" class="t-h">KNOCKOUTS</text>
  <text x="0" y="382" class="t-key">Top: 5 × 2 in knockouts (all 5 used, AC1034 grommets) · Bottom: 2 F7526 boxes</text>
  <text x="0" y="396" class="t-key">Sides: none</text>
  <text x="0" y="410" class="t-sub">Copper-outlined knockouts are the ones in use.</text>
  <text x="0" y="438" class="t-h">WIDTH CHECK · 14 in inside</text>
  <text x="0" y="458" class="t-key">Three modules = 8.7 in. Below them: VM1002 3.6 + 0.5 gap + modem 6.7 = 10.8 in.</text>
  <text x="0" y="472" class="t-key">No plate under the modem: the AC1040F (15.8 × 12) would cover the splitter.</text>
  <text x="0" y="502" class="t-h">STILL TO MEASURE</text>
  <text x="0" y="522" class="t-key">Slack on the six existing drops (3–4 ft to reach the modules)</text>
</g>

<!-- ================= DEPTH SECTION ================= -->
<g transform="translate(90 730)">
  <text x="0" y="-10" class="t-h">DEPTH CHECK · side view · 12 px = 1 in</text>
  <!-- baseline (back panel) and limits -->
  <line x1="0" y1="0" x2="0" y2="112" stroke="#1f2430" stroke-width="2"/>
  <text x="-4" y="124" class="t-dim" text-anchor="end">panel</text>
  <line x1="51.7" y1="-4" x2="51.7" y2="116" stroke="#1f2430" stroke-width="1" stroke-dasharray="4 3"/>
  <text x="51.7" y="126" class="t-dim" text-anchor="middle">4.31 to lip</text>
  <line x1="66.1" y1="-4" x2="66.1" y2="116" stroke="#9aa2b3" stroke-width="1" stroke-dasharray="2 2"/>
  <text x="66.1" y="138" class="t-dim" text-anchor="middle">+1.2 door</text>
  <!-- bars: modem 2.8 + 0.6 plug; modules 1.5 + 1.0 plug; outlet 0.4 + 1.2 plug -->
  <rect x="0" y="4" width="33.6" height="14" class="depth-bar"/>
  <text x="46" y="15" class="t-in">3  modem 2.8, ports face down</text>
  <rect x="0" y="26" width="18" height="14" class="depth-bar"/><rect x="18" y="26" width="12" height="14" class="depth-plug"/>
  <text x="46" y="37" class="t-in">2  AC106A6 ≈ 1.5 + patch plug</text>
  <rect x="0" y="48" width="39" height="14" class="depth-bar"/>
  <text x="46" y="59" class="t-in">7  F7526 box 3.25</text>
  <rect x="0" y="70" width="30" height="14" class="depth-bar"/><rect x="30" y="70" width="12" height="14" class="depth-plug"/>
  <text x="46" y="81" class="t-in">6  AC1031 2.5 + plugs</text>
  <rect x="0" y="92" width="22.2" height="14" class="depth-bar"/><rect x="22.2" y="92" width="12" height="14" class="depth-plug"/>
  <text x="46" y="103" class="t-in">9  VM1002 1.85 + F plugs</text>
</g>
<text x="360" y="770" class="t-sub">Not in the box: Web Power Switch Pro (rack shelf),</text>
<text x="360" y="784" class="t-sub">UPS (floor by the rack), the old unmanaged switch (now the Mgmt breakout on the rack).</text>
<text x="360" y="798" class="t-sub">Cords never pass through the wall.</text>
</svg>
